<svg xmlns="http://www.w3.org/2000/svg" viewBox="0 0 1024 768">
  <g fill="none" stroke="#000000" stroke-width="10" stroke-linecap="round" stroke-linejoin="round">
    <!-- balloon envelope -->
    <path d="M 512 60 C 660 60 750 170 750 300 C 750 400 660 470 590 510 L 434 510 C 364 470 274 400 274 300 C 274 170 364 60 512 60 Z"/>
    <!-- vertical segments -->
    <path d="M 512 60 C 430 170 430 400 452 510"/>
    <path d="M 512 60 C 594 170 594 400 572 510"/>
    <!-- ropes -->
    <path d="M 440 512 L 462 590"/>
    <path d="M 584 512 L 562 590"/>
    <!-- basket -->
    <path d="M 442 590 L 582 590 L 566 680 L 458 680 Z"/>
    <path d="M 452 620 L 572 620"/>
    <!-- clouds -->
    <path d="M 130 300 C 130 270 170 260 190 275 C 200 245 250 245 265 270 C 295 260 320 285 310 310 C 325 335 300 355 275 350 L 155 350 C 130 350 115 325 130 300 Z"/>
    <path d="M 790 480 C 790 450 830 440 850 455 C 860 425 910 425 925 450 C 955 440 980 465 970 490 C 985 515 960 535 935 530 L 815 530 C 790 530 775 505 790 480 Z"/>
    <!-- sun -->
    <circle cx="900" cy="110" r="50"/>
    <path d="M 900 35 L 900 12"/>
    <path d="M 900 185 L 900 208"/>
    <path d="M 825 110 L 802 110"/>
    <path d="M 975 110 L 998 110"/>
    <!-- birds -->
    <path d="M 150 560 C 170 540 190 540 205 555 C 220 540 240 540 260 560"/>
  </g>
</svg>
