<svg xmlns="http://www.w3.org/2000/svg" viewBox="0 0 1024 768">
  <g fill="none" stroke="#000000" stroke-width="10" stroke-linecap="round" stroke-linejoin="round">
    <!-- roof -->
    <path d="M 200 300 L 330 172 L 694 172 L 824 300 Z"/>
    <!-- walls -->
    <path d="M 232 300 L 792 300 L 792 690 L 232 690 Z"/>
    <!-- big door -->
    <path d="M 420 430 L 604 430 L 604 690 L 420 690 Z"/>
    <path d="M 512 430 L 512 690"/>
    <path d="M 420 430 L 604 690"/>
    <path d="M 604 430 L 420 690"/>
    <!-- hayloft window -->
    <path d="M 470 210 L 554 210 L 554 282 L 470 282 Z"/>
    <!-- side windows -->
    <path d="M 288 366 L 380 366 L 380 452 L 288 452 Z"/>
    <path d="M 288 409 L 380 409"/>
    <path d="M 334 366 L 334 452"/>
    <path d="M 644 366 L 736 366 L 736 452 L 644 452 Z"/>
    <path d="M 644 409 L 736 409"/>
    <path d="M 690 366 L 690 452"/>
    <!-- silo -->
    <path d="M 856 268 C 906 268 936 300 936 348 L 936 690 L 776 690 L 776 348 C 776 300 806 268 856 268 Z"/>
    <path d="M 786 420 L 926 420"/>
    <path d="M 786 540 L 926 540"/>
    <!-- ground -->
    <path d="M 120 690 L 960 690"/>
  </g>
</svg>
