<svg xmlns="http://www.w3.org/2000/svg" viewBox="0 0 1024 768">
  <g fill="none" stroke="#000000" stroke-width="10" stroke-linecap="round" stroke-linejoin="round">
    <!-- car body -->
    <path d="M 150 500 L 165 420 C 170 400 190 390 220 390 L 330 390 L 400 290 C 410 275 430 270 450 270 L 640 270 C 660 270 675 278 685 295 L 740 390 L 830 400 C 860 405 875 420 878 445 L 880 500 C 880 515 870 525 855 525 L 175 525 C 160 525 148 515 150 500 Z"/>
    <!-- windows -->
    <path d="M 430 300 L 530 300 L 530 385 L 372 385 Z"/>
    <path d="M 560 300 L 640 300 L 695 385 L 560 385 Z"/>
    <!-- wheels -->
    <circle cx="300" cy="525" r="70"/>
    <circle cx="300" cy="525" r="30"/>
    <circle cx="720" cy="525" r="70"/>
    <circle cx="720" cy="525" r="30"/>
    <!-- headlight -->
    <ellipse cx="855" cy="465" rx="18" ry="14"/>
    <!-- door line -->
    <path d="M 545 395 L 545 520"/>
    <!-- road -->
    <path d="M 60 640 L 260 640"/>
    <path d="M 340 640 L 540 640"/>
    <path d="M 620 640 L 820 640"/>
    <path d="M 900 640 L 964 640"/>
    <!-- cloud -->
    <path d="M 180 140 C 180 110 220 100 240 115 C 250 85 300 85 315 110 C 345 100 370 125 360 150 C 375 175 350 195 325 190 L 205 190 C 180 190 165 165 180 140 Z"/>
  </g>
</svg>
