<svg xmlns="http://www.w3.org/2000/svg" viewBox="0 0 1024 768">
  <g fill="none" stroke="#000000" stroke-width="10" stroke-linecap="round" stroke-linejoin="round">
    <!-- left tower -->
    <rect x="220" y="280" width="130" height="400"/>
    <path d="M 205 280 L 285 160 L 365 280 Z"/>
    <!-- right tower -->
    <rect x="674" y="280" width="130" height="400"/>
    <path d="M 659 280 L 739 160 L 819 280 Z"/>
    <!-- middle building -->
    <rect x="350" y="400" width="324" height="280"/>
    <!-- battlements -->
    <path d="M 350 400 L 350 360 L 400 360 L 400 400"/>
    <path d="M 440 400 L 440 360 L 490 360 L 490 400"/>
    <path d="M 534 400 L 534 360 L 584 360 L 584 400"/>
    <path d="M 624 400 L 624 360 L 674 360 L 674 400"/>
    <!-- gate -->
    <path d="M 450 680 L 450 540 C 450 490 574 490 574 540 L 574 680"/>
    <path d="M 470 680 L 470 560 M 512 680 L 512 545 M 554 680 L 554 560"/>
    <!-- tower windows -->
    <path d="M 265 380 C 265 340 305 340 305 380 L 305 430 L 265 430 Z"/>
    <path d="M 719 380 C 719 340 759 340 759 380 L 759 430 L 719 430 Z"/>
    <!-- flags -->
    <path d="M 285 160 L 285 90 L 350 110 L 285 130"/>
    <path d="M 739 160 L 739 90 L 804 110 L 739 130"/>
    <!-- ground -->
    <path d="M 60 680 L 964 680"/>
    <!-- sun -->
    <circle cx="120" cy="120" r="50"/>
    <path d="M 120 45 L 120 22"/>
    <path d="M 120 195 L 120 218"/>
    <path d="M 45 120 L 22 120"/>
    <path d="M 195 120 L 218 120"/>
  </g>
</svg>
