<svg xmlns="http://www.w3.org/2000/svg" viewBox="0 0 1024 768">
  <g fill="none" stroke="#000000" stroke-width="10" stroke-linecap="round" stroke-linejoin="round">
    <!-- body -->
    <ellipse cx="512" cy="540" rx="230" ry="160"/>
    <!-- tail -->
    <path d="M 742 540 C 850 520 890 420 850 350 C 830 315 790 320 785 360 C 782 395 810 420 780 470"/>
    <!-- head -->
    <circle cx="512" cy="280" r="150"/>
    <!-- left ear -->
    <path d="M 400 180 L 370 60 L 470 130 Z"/>
    <!-- right ear -->
    <path d="M 624 180 L 654 60 L 554 130 Z"/>
    <!-- eyes -->
    <circle cx="455" cy="260" r="26"/>
    <circle cx="569" cy="260" r="26"/>
    <!-- nose -->
    <path d="M 494 320 L 530 320 L 512 348 Z"/>
    <!-- mouth -->
    <path d="M 512 348 C 512 375 490 385 470 378"/>
    <path d="M 512 348 C 512 375 534 385 554 378"/>
    <!-- whiskers -->
    <path d="M 430 320 L 330 305"/>
    <path d="M 430 345 L 335 355"/>
    <path d="M 594 320 L 694 305"/>
    <path d="M 594 345 L 689 355"/>
    <!-- front paws -->
    <ellipse cx="430" cy="680" rx="55" ry="32"/>
    <ellipse cx="594" cy="680" rx="55" ry="32"/>
  </g>
</svg>
