<svg xmlns="http://www.w3.org/2000/svg" viewBox="0 0 1024 768">
  <g fill="none" stroke="#000000" stroke-width="10" stroke-linecap="round" stroke-linejoin="round">
    <!-- wrapper -->
    <path d="M 370 430 L 410 680 L 614 680 L 654 430 Z"/>
    <path d="M 420 440 L 445 675"/>
    <path d="M 512 440 L 512 678"/>
    <path d="M 604 440 L 579 675"/>
    <!-- frosting swirl -->
    <path d="M 350 430 C 330 380 370 350 410 365 C 380 320 430 280 475 300 C 460 240 560 230 570 290 C 620 265 670 310 640 355 C 690 350 700 405 660 430 C 580 450 430 450 350 430 Z"/>
    <!-- cherry -->
    <circle cx="512" cy="215" r="34"/>
    <path d="M 512 181 C 518 160 532 148 550 144"/>
    <!-- sprinkles -->
    <path d="M 430 390 L 452 380"/>
    <path d="M 540 375 L 562 385"/>
    <path d="M 480 340 L 500 350"/>
    <path d="M 590 400 L 610 392"/>
    <!-- hearts -->
    <path d="M 170 250 C 150 220 110 235 115 265 C 118 290 150 310 170 325 C 190 310 222 290 225 265 C 230 235 190 220 170 250 Z"/>
    <path d="M 860 480 C 845 458 815 469 819 491 C 821 510 845 525 860 536 C 875 525 899 510 901 491 C 905 469 875 458 860 480 Z"/>
    <!-- table -->
    <path d="M 100 700 L 924 700"/>
  </g>
</svg>
