<svg xmlns="http://www.w3.org/2000/svg" viewBox="0 0 1024 768">
  <g fill="none" stroke="#000000" stroke-width="10" stroke-linecap="round" stroke-linejoin="round">
    <!-- handle -->
    <path d="M 330 420 C 330 240 694 240 694 420"/>
    <!-- bow on the handle -->
    <path d="M 512 258 L 462 224 L 462 292 Z"/>
    <path d="M 512 258 L 562 224 L 562 292 Z"/>
    <circle cx="512" cy="258" r="14"/>
    <!-- eggs peeking out -->
    <path d="M 420 430 C 460 430 482 486 482 522 C 482 552 456 574 420 574 C 384 574 358 552 358 522 C 358 486 380 430 420 430 Z"/>
    <path d="M 604 430 C 644 430 666 486 666 522 C 666 552 640 574 604 574 C 568 574 542 552 542 522 C 542 486 564 430 604 430 Z"/>
    <path d="M 512 400 C 548 400 568 452 568 486 C 568 514 544 534 512 534 C 480 534 456 514 456 486 C 456 452 476 400 512 400 Z"/>
    <!-- basket body -->
    <path d="M 300 520 L 724 520 L 676 720 L 348 720 Z"/>
    <!-- weave -->
    <path d="M 312 570 L 712 570"/>
    <path d="M 324 626 L 700 626"/>
    <path d="M 336 674 L 688 674"/>
    <path d="M 392 520 L 372 720"/>
    <path d="M 512 520 L 512 720"/>
    <path d="M 632 520 L 652 720"/>
  </g>
</svg>
