<svg xmlns="http://www.w3.org/2000/svg" viewBox="0 0 1024 768">
  <g fill="none" stroke="#000000" stroke-width="10" stroke-linecap="round" stroke-linejoin="round">
    <!-- body -->
    <ellipse cx="560" cy="460" rx="250" ry="170"/>
    <!-- head -->
    <circle cx="290" cy="330" r="130"/>
    <!-- ear -->
    <path d="M 350 240 C 460 180 520 260 480 350 C 450 420 380 430 350 400"/>
    <!-- trunk -->
    <path d="M 210 400 C 170 470 160 550 190 610 C 210 645 260 640 265 600 C 268 570 240 560 245 520"/>
    <!-- eye -->
    <circle cx="260" cy="300" r="18"/>
    <!-- tusk -->
    <path d="M 250 430 C 235 460 235 480 250 500"/>
    <!-- legs -->
    <path d="M 420 610 L 420 690 L 500 690 L 500 615"/>
    <path d="M 640 610 L 640 690 L 720 690 L 720 615"/>
    <!-- tail -->
    <path d="M 805 450 C 850 470 860 510 850 550"/>
    <!-- toenails -->
    <path d="M 440 690 C 445 675 455 675 460 690"/>
    <path d="M 660 690 C 665 675 675 675 680 690"/>
    <!-- ground -->
    <path d="M 60 700 L 964 700"/>
  </g>
</svg>
