<svg xmlns="http://www.w3.org/2000/svg" viewBox="0 0 1024 768">
  <g fill="none" stroke="#000000" stroke-width="10" stroke-linecap="round" stroke-linejoin="round">
    <!-- tracks -->
    <rect x="250" y="590" width="360" height="100" rx="50"/>
    <circle cx="325" cy="640" r="24"/>
    <circle cx="430" cy="640" r="24"/>
    <circle cx="535" cy="640" r="24"/>
    <!-- body -->
    <rect x="270" y="470" width="310" height="110" rx="22"/>
    <!-- cab -->
    <rect x="300" y="340" width="160" height="140" rx="20"/>
    <!-- window -->
    <rect x="325" y="368" width="110" height="80" rx="12"/>
    <!-- exhaust -->
    <rect x="500" y="400" width="32" height="62" rx="12"/>
    <!-- boom -->
    <path d="M 580 495 L 760 355 L 800 405 L 625 545 Z"/>
    <!-- arm -->
    <path d="M 760 355 L 862 480 L 900 450 L 800 405 Z"/>
    <!-- bucket -->
    <path d="M 862 480 L 900 450 L 945 545 C 930 590 875 600 845 570 Z"/>
    <!-- ground -->
    <path d="M 150 690 L 620 690"/>
    <path d="M 700 690 L 900 690"/>
  </g>
</svg>
