<svg xmlns="http://www.w3.org/2000/svg" viewBox="0 0 1024 768">
  <g fill="none" stroke="#000000" stroke-width="10" stroke-linecap="round" stroke-linejoin="round">
    <!-- body -->
    <ellipse cx="480" cy="384" rx="260" ry="160"/>
    <!-- tail -->
    <path d="M 730 340 L 880 240 L 850 384 L 880 528 L 730 428 Z"/>
    <!-- top fin -->
    <path d="M 400 232 C 420 150 540 150 560 235"/>
    <!-- bottom fin -->
    <path d="M 420 538 C 440 610 540 610 560 535"/>
    <!-- eye -->
    <circle cx="330" cy="340" r="34"/>
    <circle cx="330" cy="340" r="12"/>
    <!-- mouth -->
    <path d="M 235 420 C 260 440 290 440 310 425"/>
    <!-- gill -->
    <path d="M 390 260 C 350 340 350 430 390 505"/>
    <!-- scales -->
    <path d="M 480 300 C 500 320 530 320 550 300"/>
    <path d="M 540 380 C 560 400 590 400 610 380"/>
    <path d="M 470 450 C 490 470 520 470 540 450"/>
    <!-- bubbles -->
    <circle cx="150" cy="250" r="28"/>
    <circle cx="110" cy="160" r="20"/>
    <circle cx="180" cy="100" r="14"/>
  </g>
</svg>
