<svg xmlns="http://www.w3.org/2000/svg" viewBox="0 0 1024 768">
  <g fill="none" stroke="#000000" stroke-width="10" stroke-linecap="round" stroke-linejoin="round">
    <!-- petals -->
    <ellipse cx="512" cy="150" rx="60" ry="90"/>
    <ellipse cx="642" cy="205" rx="60" ry="90" transform="rotate(60 642 205)"/>
    <ellipse cx="642" cy="335" rx="60" ry="90" transform="rotate(120 642 335)"/>
    <ellipse cx="512" cy="390" rx="60" ry="90"/>
    <ellipse cx="382" cy="335" rx="60" ry="90" transform="rotate(60 382 335)"/>
    <ellipse cx="382" cy="205" rx="60" ry="90" transform="rotate(120 382 205)"/>
    <!-- center -->
    <circle cx="512" cy="270" r="70"/>
    <!-- stem -->
    <path d="M 512 480 C 505 560 515 630 512 700"/>
    <!-- left leaf -->
    <path d="M 510 580 C 430 540 350 560 330 610 C 380 650 470 630 510 580 Z"/>
    <!-- right leaf -->
    <path d="M 513 640 C 593 600 673 620 693 670 C 643 710 553 690 513 640 Z"/>
    <!-- sun -->
    <circle cx="880" cy="120" r="60"/>
    <path d="M 880 30 L 880 5"/>
    <path d="M 880 210 L 880 235"/>
    <path d="M 790 120 L 765 120"/>
    <path d="M 970 120 L 995 120"/>
    <path d="M 817 57 L 799 39"/>
    <path d="M 943 183 L 961 201"/>
    <path d="M 943 57 L 961 39"/>
    <path d="M 817 183 L 799 201"/>
  </g>
</svg>
