<svg xmlns="http://www.w3.org/2000/svg" viewBox="0 0 1024 768">
  <g fill="none" stroke="#000000" stroke-width="10" stroke-linecap="round" stroke-linejoin="round">
    <!-- ghost body with a wavy hem, closed -->
    <path d="M 512 80 C 646 80 730 190 730 330 L 730 660 L 694 606 L 640 668 L 586 606 L 530 668 L 476 606 L 422 668 L 368 606 L 314 668 L 294 610 L 294 330 C 294 190 378 80 512 80 Z"/>
    <!-- eyes and mouth -->
    <ellipse cx="452" cy="290" rx="30" ry="38"/>
    <ellipse cx="572" cy="290" rx="30" ry="38"/>
    <ellipse cx="512" cy="410" rx="42" ry="52"/>
    <!-- little bats -->
    <path d="M 140 200 C 170 170 190 200 210 180 C 230 200 250 170 280 200 C 250 220 230 240 210 220 C 190 240 170 220 140 200 Z"/>
    <path d="M 780 470 C 802 448 816 470 830 456 C 844 470 858 448 880 470 C 858 486 844 500 830 486 C 816 500 802 486 780 470 Z"/>
    <!-- moon -->
    <path d="M 880 160 C 830 160 800 200 800 240 C 800 280 830 320 880 320 C 850 290 840 200 880 160 Z"/>
  </g>
</svg>
