<svg xmlns="http://www.w3.org/2000/svg" viewBox="0 0 1024 768">
  <g fill="none" stroke="#000000" stroke-width="10" stroke-linecap="round" stroke-linejoin="round">
    <!-- body outline, one closed path -->
    <path d="M 512 80 C 570 80 610 122 610 176 C 610 200 602 220 588 236 L 700 236 C 748 236 780 264 780 300 C 780 336 748 360 700 360 L 616 360 L 616 520 L 660 690 C 668 726 640 740 612 740 C 588 740 572 726 566 700 L 512 520 L 458 700 C 452 726 436 740 412 740 C 384 740 356 726 364 690 L 408 520 L 408 360 L 324 360 C 276 360 244 336 244 300 C 244 264 276 236 324 236 L 436 236 C 422 220 414 200 414 176 C 414 122 454 80 512 80 Z"/>
    <!-- face -->
    <circle cx="484" cy="164" r="10"/>
    <circle cx="540" cy="164" r="10"/>
    <path d="M 476 200 C 496 218 528 218 548 200"/>
    <!-- icing buttons -->
    <circle cx="512" cy="420" r="18"/>
    <circle cx="512" cy="490" r="18"/>
    <!-- icing zigzag -->
    <path d="M 330 300 L 360 282 L 390 300 L 420 282"/>
    <path d="M 604 282 L 634 300 L 664 282 L 694 300"/>
    <path d="M 430 640 L 456 622 L 482 640"/>
    <path d="M 542 640 L 568 622 L 594 640"/>
  </g>
</svg>
