<svg xmlns="http://www.w3.org/2000/svg" viewBox="0 0 1024 768">
  <g fill="none" stroke="#000000" stroke-width="10" stroke-linecap="round" stroke-linejoin="round">
    <!-- house body -->
    <rect x="280" y="330" width="380" height="330"/>
    <!-- roof -->
    <path d="M 250 330 L 470 150 L 690 330 Z"/>
    <!-- chimney -->
    <path d="M 580 240 L 580 170 L 640 170 L 640 290"/>
    <!-- door -->
    <path d="M 420 660 L 420 490 C 420 460 520 460 520 490 L 520 660"/>
    <circle cx="500" cy="580" r="9"/>
    <!-- windows -->
    <rect x="320" y="380" width="80" height="80"/>
    <path d="M 360 380 L 360 460 M 320 420 L 400 420"/>
    <rect x="540" y="380" width="80" height="80"/>
    <path d="M 580 380 L 580 460 M 540 420 L 620 420"/>
    <!-- tree -->
    <path d="M 810 660 L 810 560"/>
    <circle cx="810" cy="480" r="90"/>
    <!-- sun -->
    <circle cx="130" cy="120" r="55"/>
    <path d="M 130 40 L 130 15"/>
    <path d="M 130 200 L 130 225"/>
    <path d="M 50 120 L 25 120"/>
    <path d="M 210 120 L 235 120"/>
    <path d="M 73 63 L 55 45"/>
    <path d="M 187 177 L 205 195"/>
    <path d="M 187 63 L 205 45"/>
    <path d="M 73 177 L 55 195"/>
    <!-- ground -->
    <path d="M 60 660 L 964 660"/>
  </g>
</svg>
