<svg xmlns="http://www.w3.org/2000/svg" viewBox="0 0 1024 768">
  <g fill="none" stroke="#000000" stroke-width="10" stroke-linecap="round" stroke-linejoin="round">
    <!-- cone -->
    <path d="M 400 380 L 512 700 L 624 380 Z"/>
    <!-- waffle pattern -->
    <path d="M 430 465 L 585 420"/>
    <path d="M 455 540 L 570 505"/>
    <path d="M 480 610 L 552 590"/>
    <path d="M 440 420 L 545 620"/>
    <path d="M 500 415 L 575 555"/>
    <!-- bottom scoop -->
    <path d="M 385 380 C 360 290 420 250 512 250 C 604 250 664 290 639 380 C 590 400 434 400 385 380 Z"/>
    <!-- top scoop -->
    <path d="M 420 260 C 400 175 450 130 512 130 C 574 130 624 175 604 260"/>
    <!-- cherry -->
    <circle cx="512" cy="105" r="32"/>
    <path d="M 512 73 C 520 55 535 45 552 42"/>
    <!-- drips -->
    <path d="M 450 390 C 450 420 470 420 470 392"/>
    <path d="M 555 393 C 555 425 578 423 576 390"/>
    <!-- sprinkles -->
    <path d="M 470 200 L 490 190"/>
    <path d="M 540 185 L 560 195"/>
    <path d="M 500 300 L 520 310"/>
    <path d="M 570 290 L 590 280"/>
    <path d="M 440 310 L 458 300"/>
    <!-- sun -->
    <circle cx="140" cy="140 " r="55"/>
    <path d="M 140 60 L 140 35"/>
    <path d="M 140 220 L 140 245"/>
    <path d="M 60 140 L 35 140"/>
    <path d="M 220 140 L 245 140"/>
    <!-- cloud -->
    <path d="M 790 180 C 790 152 828 143 847 157 C 856 130 902 130 916 153 C 943 145 965 168 956 191 C 970 212 948 230 925 226 L 813 226 C 790 226 777 201 790 180 Z"/>
  </g>
</svg>
