<svg xmlns="http://www.w3.org/2000/svg" viewBox="0 0 1024 768">
  <g fill="none" stroke="#000000" stroke-width="10" stroke-linecap="round" stroke-linejoin="round">
    <!-- hair, left strand -->
    <path d="M 490 60 C 380 62 318 150 328 240 C 333 322 312 385 287 425 C 350 442 410 420 434 386 C 400 340 380 300 380 245 C 380 175 420 115 490 100 Z"/>
    <!-- hair, right strand -->
    <path d="M 490 60 C 600 62 662 150 652 240 C 647 322 668 385 693 425 C 630 442 570 420 546 386 C 580 340 600 300 600 245 C 600 175 560 115 490 100 Z"/>
    <!-- face -->
    <circle cx="490" cy="215" r="98"/>
    <!-- eyes -->
    <circle cx="455" cy="200" r="17"/>
    <circle cx="525" cy="200" r="17"/>
    <!-- smile -->
    <path d="M 452 258 C 472 280 508 280 530 258"/>
    <!-- torso -->
    <path d="M 455 322 C 445 390 450 450 477 492 L 523 492 C 550 450 555 390 545 322 Z"/>
    <!-- tail -->
    <path d="M 475 492 C 430 570 445 640 535 662 C 620 680 695 655 728 612 C 752 634 786 645 822 638 C 806 612 806 585 822 558 C 786 550 752 560 728 582 C 706 545 645 522 560 528 C 540 517 530 505 525 492 Z"/>
    <!-- scale arcs -->
    <path d="M 500 570 C 520 590 550 590 570 570"/>
    <path d="M 560 610 C 580 630 610 630 630 610"/>
    <!-- starfish -->
    <path d="M 265 590 L 280 622 L 315 625 L 288 646 L 297 680 L 265 660 L 233 680 L 242 646 L 215 625 L 250 622 Z"/>
    <!-- bubbles -->
    <circle cx="760" cy="240" r="22"/>
    <circle cx="810" cy="180" r="15"/>
  </g>
</svg>
