<svg xmlns="http://www.w3.org/2000/svg" viewBox="0 0 1024 768">
  <g fill="none" stroke="#000000" stroke-width="10" stroke-linecap="round" stroke-linejoin="round">
    <!-- body -->
    <path d="M 512 120 C 656 120 720 300 720 450 C 720 610 630 700 512 700 C 394 700 304 610 304 450 C 304 300 368 120 512 120 Z"/>
    <!-- wings -->
    <path d="M 306 350 C 258 420 258 520 302 574 C 330 542 340 440 336 372 Z"/>
    <path d="M 718 350 C 766 420 766 520 722 574 C 694 542 684 440 688 372 Z"/>
    <!-- face -->
    <ellipse cx="512" cy="250" rx="148" ry="128"/>
    <!-- eyes -->
    <circle cx="464" cy="224" r="24"/>
    <circle cx="560" cy="224" r="24"/>
    <!-- beak -->
    <path d="M 512 274 L 560 306 L 512 338 L 464 306 Z"/>
    <!-- belly -->
    <path d="M 512 400 C 596 400 636 470 636 534 C 636 616 584 660 512 660 C 440 660 388 616 388 534 C 388 470 428 400 512 400 Z"/>
    <!-- feet -->
    <path d="M 452 700 C 420 700 388 716 388 736 L 472 736 C 480 722 476 704 452 700 Z"/>
    <path d="M 572 700 C 604 700 636 716 636 736 L 552 736 C 544 722 548 704 572 700 Z"/>
  </g>
</svg>
