<svg xmlns="http://www.w3.org/2000/svg" viewBox="0 0 1024 768">
  <g fill="none" stroke="#000000" stroke-width="10" stroke-linecap="round" stroke-linejoin="round">
    <!-- slice -->
    <path d="M 512 660 L 300 220 C 430 150 594 150 724 220 Z"/>
    <!-- crust -->
    <path d="M 300 220 C 430 150 594 150 724 220 L 690 290 C 580 232 444 232 334 290 Z"/>
    <!-- salami -->
    <circle cx="512" cy="360" r="46"/>
    <circle cx="420" cy="330" r="34"/>
    <circle cx="604" cy="330" r="34"/>
    <circle cx="470" cy="470" r="36"/>
    <circle cx="560" cy="460" r="30"/>
    <circle cx="516" cy="560" r="26"/>
    <!-- happy face on the big salami -->
    <circle cx="498" cy="352" r="6"/>
    <circle cx="526" cy="352" r="6"/>
    <path d="M 496 374 C 504 382 520 382 528 374"/>
    <!-- steam -->
    <path d="M 380 120 C 370 100 380 84 396 76"/>
    <path d="M 512 104 C 502 84 512 68 528 60"/>
    <path d="M 644 120 C 634 100 644 84 660 76"/>
  </g>
</svg>
