<svg xmlns="http://www.w3.org/2000/svg" viewBox="0 0 1024 768">
  <g fill="none" stroke="#000000" stroke-width="10" stroke-linecap="round" stroke-linejoin="round">
    <!-- ice body -->
    <path d="M 400 120 C 400 80 440 60 512 60 C 584 60 624 80 624 120 L 624 430 C 624 470 584 490 512 490 C 440 490 400 470 400 430 Z"/>
    <!-- bite -->
    <path d="M 624 150 C 596 150 588 190 616 198 C 596 214 612 246 624 238"/>
    <!-- stripes -->
    <path d="M 400 240 L 624 240"/>
    <path d="M 400 360 L 624 360"/>
    <!-- face -->
    <circle cx="470" cy="300" r="12"/>
    <circle cx="554" cy="300" r="12"/>
    <path d="M 478 330 C 492 344 532 344 546 330"/>
    <!-- drip -->
    <path d="M 452 490 C 452 520 428 524 428 548 C 428 566 452 570 460 554 C 466 542 460 512 456 490"/>
    <!-- stick -->
    <path d="M 482 490 L 482 640 C 482 668 542 668 542 640 L 542 490"/>
    <!-- sun -->
    <circle cx="850" cy="150" r="60"/>
    <path d="M 850 60 L 850 24"/>
    <path d="M 850 240 L 850 276"/>
    <path d="M 760 150 L 724 150"/>
    <path d="M 940 150 L 976 150"/>
    <path d="M 786 86 L 762 62"/>
    <path d="M 914 86 L 938 62"/>
    <path d="M 786 214 L 762 238"/>
    <path d="M 914 214 L 938 238"/>
    <!-- sparkles -->
    <path d="M 180 200 L 190 226 L 216 236 L 190 246 L 180 272 L 170 246 L 144 236 L 170 226 Z"/>
    <path d="M 220 520 L 230 546 L 256 556 L 230 566 L 220 592 L 210 566 L 184 556 L 210 546 Z"/>
  </g>
</svg>
