<svg xmlns="http://www.w3.org/2000/svg" viewBox="0 0 1024 768">
  <g fill="none" stroke="#000000" stroke-width="10" stroke-linecap="round" stroke-linejoin="round">
    <!-- rainbow bands (closed ring segments between arcs) -->
    <path d="M 172 560 A 340 340 0 0 1 852 560 L 780 560 A 268 268 0 0 0 244 560 Z"/>
    <path d="M 244 560 A 268 268 0 0 1 780 560 L 708 560 A 196 196 0 0 0 316 560 Z"/>
    <path d="M 316 560 A 196 196 0 0 1 708 560 L 636 560 A 124 124 0 0 0 388 560 Z"/>
    <path d="M 388 560 A 124 124 0 0 1 636 560 L 564 560 A 52 52 0 0 0 460 560 Z"/>
    <!-- left cloud -->
    <path d="M 88 560 C 66 560 52 540 60 520 C 46 500 60 474 84 474 C 88 448 118 434 142 446 C 156 424 190 424 204 446 C 232 438 258 460 252 488 C 272 500 272 530 254 542 C 258 554 248 566 236 566 L 100 566 C 96 566 92 564 88 560 Z"/>
    <!-- right cloud -->
    <path d="M 788 560 C 766 560 752 540 760 520 C 746 500 760 474 784 474 C 788 448 818 434 842 446 C 856 424 890 424 904 446 C 932 438 958 460 952 488 C 972 500 972 530 954 542 C 958 554 948 566 936 566 L 800 566 C 796 566 792 564 788 560 Z"/>
    <!-- little hearts -->
    <path d="M 180 220 C 168 200 140 204 136 226 C 132 246 158 266 180 280 C 202 266 228 246 224 226 C 220 204 192 200 180 220 Z"/>
    <path d="M 844 220 C 832 200 804 204 800 226 C 796 246 822 266 844 280 C 866 266 892 246 888 226 C 884 204 856 200 844 220 Z"/>
  </g>
</svg>
