<svg xmlns="http://www.w3.org/2000/svg" viewBox="0 0 1024 768">
  <g fill="none" stroke="#000000" stroke-width="10" stroke-linecap="round" stroke-linejoin="round">
    <!-- nose cone -->
    <path d="M 512 60 C 570 120 600 180 600 240 L 424 240 C 424 180 454 120 512 60 Z"/>
    <!-- body -->
    <path d="M 424 240 L 600 240 L 600 520 L 424 520 Z"/>
    <!-- window -->
    <circle cx="512" cy="330" r="52"/>
    <circle cx="512" cy="330" r="30"/>
    <!-- left fin -->
    <path d="M 424 400 C 350 440 330 520 340 580 L 424 520 Z"/>
    <!-- right fin -->
    <path d="M 600 400 C 674 440 694 520 684 580 L 600 520 Z"/>
    <!-- flame -->
    <path d="M 452 525 C 440 600 470 650 512 700 C 554 650 584 600 572 525"/>
    <path d="M 487 528 C 483 570 495 600 512 630 C 529 600 541 570 537 528"/>
    <!-- stars -->
    <path d="M 180 150 L 192 185 L 228 185 L 199 207 L 210 242 L 180 220 L 150 242 L 161 207 L 132 185 L 168 185 Z"/>
    <path d="M 840 320 L 852 355 L 888 355 L 859 377 L 870 412 L 840 390 L 810 412 L 821 377 L 792 355 L 828 355 Z"/>
    <!-- moon -->
    <path d="M 870 90 C 830 100 810 140 825 175 C 795 165 780 130 792 100 C 804 72 845 60 870 90 Z"/>
    <circle cx="170" cy="560" r="26"/>
  </g>
</svg>
