<svg xmlns="http://www.w3.org/2000/svg" viewBox="0 0 1024 768">
  <g fill="none" stroke="#000000" stroke-width="10" stroke-linecap="round" stroke-linejoin="round">
    <!-- flags -->
    <path d="M 330 200 L 330 300"/>
    <path d="M 330 206 L 400 232 L 330 258 Z"/>
    <path d="M 694 200 L 694 300"/>
    <path d="M 694 206 L 624 232 L 694 258 Z"/>
    <path d="M 512 140 L 512 250"/>
    <path d="M 512 146 L 586 174 L 512 202 Z"/>
    <!-- side towers -->
    <path d="M 274 300 L 386 300 L 386 560 L 274 560 Z"/>
    <path d="M 274 300 L 274 272 L 302 272 L 302 300"/>
    <path d="M 330 300 L 330 272 L 358 272 L 358 300"/>
    <path d="M 638 300 L 750 300 L 750 560 L 638 560 Z"/>
    <path d="M 638 300 L 638 272 L 666 272 L 666 300"/>
    <path d="M 694 300 L 694 272 L 722 272 L 722 300"/>
    <!-- centre tower -->
    <path d="M 432 250 L 592 250 L 592 560 L 432 560 Z"/>
    <path d="M 432 250 L 432 222 L 462 222 L 462 250"/>
    <path d="M 497 250 L 497 222 L 527 222 L 527 250"/>
    <path d="M 562 250 L 562 222 L 592 222 L 592 250"/>
    <!-- gate -->
    <path d="M 476 560 L 476 440 C 476 400 548 400 548 440 L 548 560 Z"/>
    <!-- base -->
    <path d="M 224 560 L 800 560 L 800 640 L 224 640 Z"/>
    <!-- beach line and bucket -->
    <path d="M 60 640 L 964 640"/>
    <path d="M 130 640 L 240 640 L 220 736 L 150 736 Z"/>
    <path d="M 130 640 C 160 600 210 600 240 640"/>
    <!-- shells -->
    <path d="M 840 700 C 840 668 900 668 900 700 Z"/>
    <path d="M 858 700 L 866 674"/>
    <path d="M 882 700 L 874 674"/>
    <!-- sun -->
    <circle cx="140" cy="130" r="54"/>
    <path d="M 140 46 L 140 20"/>
    <path d="M 140 214 L 140 240"/>
    <path d="M 56 130 L 30 130"/>
    <path d="M 224 130 L 250 130"/>
  </g>
</svg>
