<svg xmlns="http://www.w3.org/2000/svg" viewBox="0 0 1024 768">
  <g fill="none" stroke="#000000" stroke-width="10" stroke-linecap="round" stroke-linejoin="round">
    <!-- legs, behind the wool -->
    <path d="M 330 590 L 322 700 L 372 700 L 366 590 Z"/>
    <path d="M 500 590 L 494 700 L 544 700 L 536 590 Z"/>
    <!-- woolly body: one closed path of bumps -->
    <path d="M 246 376 C 216 316 266 268 316 288 C 326 232 396 216 428 258 C 468 214 538 232 542 288 C 598 270 642 318 616 378 C 670 398 670 476 616 492 C 636 548 584 592 532 570 C 522 622 450 636 424 592 C 386 632 320 616 316 562 C 260 582 216 534 240 482 C 188 464 190 394 246 376 Z"/>
    <!-- ears -->
    <ellipse cx="716" cy="352" rx="60" ry="34" transform="rotate(-25 716 352)"/>
    <ellipse cx="884" cy="352" rx="60" ry="34" transform="rotate(25 884 352)"/>
    <!-- head -->
    <ellipse cx="800" cy="424" rx="104" ry="118"/>
    <!-- fringe -->
    <path d="M 740 346 C 770 316 830 316 860 346 C 840 372 760 372 740 346 Z"/>
    <!-- eyes -->
    <circle cx="766" cy="412" r="18"/>
    <circle cx="834" cy="412" r="18"/>
    <!-- nose -->
    <ellipse cx="800" cy="492" rx="36" ry="24"/>
  </g>
</svg>
