<svg xmlns="http://www.w3.org/2000/svg" viewBox="0 0 1024 768">
  <g fill="none" stroke="#000000" stroke-width="10" stroke-linecap="round" stroke-linejoin="round">
    <!-- big star -->
    <path d="M 660 130 L 706 258 L 842 264 L 734 348 L 772 480 L 660 402 L 548 480 L 586 348 L 478 264 L 614 258 Z"/>
    <!-- inner star, a second area to fill -->
    <path d="M 660 244 L 678 296 L 732 298 L 688 332 L 704 384 L 660 352 L 616 384 L 632 332 L 588 298 L 642 296 Z"/>
    <!-- tail, three closed streaks, each touching the star it trails -->
    <path d="M 520 292 C 400 316 268 372 176 452 C 276 452 402 414 500 362 Z"/>
    <path d="M 556 400 C 436 444 306 528 216 616 C 322 600 444 532 540 460 Z"/>
    <path d="M 616 486 C 522 546 428 636 372 726 C 466 686 566 606 630 528 Z"/>
    <!-- little stars -->
    <path d="M 250 190 L 266 232 L 310 236 L 276 264 L 288 306 L 250 282 L 212 306 L 224 264 L 190 236 L 234 232 Z"/>
    <path d="M 806 566 L 818 598 L 852 600 L 826 622 L 834 654 L 806 636 L 778 654 L 786 622 L 760 600 L 794 598 Z"/>
  </g>
</svg>
