<svg xmlns="http://www.w3.org/2000/svg" viewBox="0 0 1024 768">
  <g fill="none" stroke="#000000" stroke-width="10" stroke-linecap="round" stroke-linejoin="round">
    <!-- glass dome -->
    <circle cx="512" cy="360" r="250"/>
    <!-- base -->
    <path d="M 330 560 L 694 560 L 730 660 L 294 660 Z"/>
    <path d="M 270 660 L 754 660 L 754 726 L 270 726 Z"/>
    <path d="M 300 694 L 724 694"/>
    <!-- little house inside -->
    <path d="M 440 420 L 584 420 L 584 546 L 440 546 Z"/>
    <path d="M 420 420 L 512 336 L 604 420 Z"/>
    <path d="M 486 546 L 486 480 L 540 480 L 540 546 Z"/>
    <path d="M 448 452 L 476 452 L 476 480 L 448 480 Z"/>
    <!-- tree inside -->
    <path d="M 366 400 L 410 460 L 322 460 Z"/>
    <path d="M 366 452 L 420 522 L 312 522 Z"/>
    <path d="M 352 522 L 380 522 L 380 546 L 352 546 Z"/>
    <!-- ground inside the globe -->
    <path d="M 285 546 C 380 520 644 520 739 546"/>
    <!-- floating snow -->
    <circle cx="400" cy="230" r="12"/>
    <circle cx="560" cy="200" r="12"/>
    <circle cx="640" cy="300" r="12"/>
    <circle cx="360" cy="330" r="12"/>
    <circle cx="620" cy="430" r="12"/>
  </g>
</svg>
