<svg xmlns="http://www.w3.org/2000/svg" viewBox="0 0 1024 768">
  <g fill="none" stroke="#000000" stroke-width="10" stroke-linecap="round" stroke-linejoin="round">
    <!-- hat -->
    <path d="M 428 150 L 596 150 L 596 186 L 428 186 Z"/>
    <path d="M 452 60 L 572 60 L 572 150 L 452 150 Z"/>
    <!-- head -->
    <circle cx="512" cy="270" r="86"/>
    <circle cx="484" cy="252" r="9"/>
    <circle cx="540" cy="252" r="9"/>
    <path d="M 512 268 L 566 288 L 512 300 Z"/>
    <path d="M 476 316 C 496 334 528 334 548 316"/>
    <!-- middle body -->
    <circle cx="512" cy="440" r="112"/>
    <circle cx="512" cy="404" r="16"/>
    <circle cx="512" cy="470" r="16"/>
    <!-- bottom body -->
    <circle cx="512" cy="632" r="140"/>
    <!-- arms -->
    <path d="M 402 424 L 268 356"/>
    <path d="M 300 372 L 250 340"/>
    <path d="M 296 396 L 246 392"/>
    <path d="M 622 424 L 756 356"/>
    <path d="M 724 372 L 774 340"/>
    <path d="M 728 396 L 778 392"/>
    <!-- snowflakes -->
    <path d="M 140 240 L 140 300"/>
    <path d="M 110 270 L 170 270"/>
    <path d="M 119 249 L 161 291"/>
    <path d="M 161 249 L 119 291"/>
    <path d="M 880 480 L 880 540"/>
    <path d="M 850 510 L 910 510"/>
    <path d="M 859 489 L 901 531"/>
    <path d="M 901 489 L 859 531"/>
  </g>
</svg>
