<svg xmlns="http://www.w3.org/2000/svg" viewBox="0 0 1024 768">
  <g fill="none" stroke="#000000" stroke-width="10" stroke-linecap="round" stroke-linejoin="round">
    <!-- shell -->
    <path d="M 262 480 C 262 330 372 230 512 230 C 652 230 762 330 762 480 Z"/>
    <!-- shell pattern -->
    <path d="M 402 480 L 422 350 L 512 300 L 602 350 L 622 480"/>
    <path d="M 422 350 L 322 340"/>
    <path d="M 602 350 L 702 340"/>
    <path d="M 512 300 L 512 235"/>
    <!-- shell rim -->
    <path d="M 242 480 L 782 480 L 762 530 L 262 530 Z"/>
    <!-- head -->
    <circle cx="850" cy="440" r="62"/>
    <circle cx="868" cy="425" r="14"/>
    <path d="M 880 470 C 895 478 908 476 918 468"/>
    <!-- legs -->
    <ellipse cx="360" cy="580" rx="55" ry="40"/>
    <ellipse cx="660" cy="580" rx="55" ry="40"/>
    <!-- tail -->
    <path d="M 262 500 C 210 500 180 520 165 545 C 195 555 235 550 268 530"/>
    <!-- grass -->
    <path d="M 100 660 C 110 630 115 630 125 660"/>
    <path d="M 140 660 C 150 625 155 625 165 660"/>
    <path d="M 900 660 C 910 630 915 630 925 660"/>
    <path d="M 940 660 C 950 625 955 625 965 660"/>
    <path d="M 60 660 L 964 660"/>
    <!-- sun -->
    <circle cx="140" cy="120" r="55"/>
    <path d="M 140 40 L 140 15"/>
    <path d="M 140 200 L 140 225"/>
    <path d="M 60 120 L 35 120"/>
    <path d="M 220 120 L 245 120"/>
  </g>
</svg>
