<svg xmlns="http://www.w3.org/2000/svg" viewBox="0 0 1024 768">
  <g fill="none" stroke="#000000" stroke-width="10" stroke-linecap="round" stroke-linejoin="round">
    <!-- body -->
    <ellipse cx="520" cy="480" rx="220" ry="140"/>
    <!-- neck + head -->
    <path d="M 660 400 C 700 340 710 290 705 240 C 745 240 790 265 800 310 C 810 355 780 395 730 415"/>
    <circle cx="740" cy="290" r="70"/>
    <!-- horn -->
    <path d="M 770 230 L 830 90 L 800 235 Z"/>
    <!-- horn stripes -->
    <path d="M 786 195 L 812 205"/>
    <path d="M 796 160 L 818 170"/>
    <!-- eye -->
    <circle cx="745" cy="280" r="14"/>
    <!-- muzzle -->
    <path d="M 795 320 C 815 330 820 345 812 358"/>
    <!-- mane -->
    <path d="M 700 240 C 660 250 630 280 620 320 C 650 315 675 300 690 280"/>
    <path d="M 660 330 C 625 345 605 375 600 410 C 630 400 652 385 664 365"/>
    <!-- legs -->
    <path d="M 400 600 L 400 700 L 445 700 L 445 605"/>
    <path d="M 610 600 L 610 700 L 655 700 L 655 605"/>
    <!-- tail -->
    <path d="M 305 450 C 240 440 190 470 170 520 C 220 530 270 515 300 490"/>
    <path d="M 300 490 C 245 495 205 525 195 570 C 245 570 285 550 310 520"/>
    <!-- rainbow -->
    <path d="M 90 280 C 90 170 250 170 250 280"/>
    <path d="M 120 280 C 120 200 220 200 220 280"/>
    <path d="M 150 280 C 150 230 190 230 190 280"/>
    <!-- cloud -->
    <path d="M 830 520 C 830 495 865 487 882 500 C 890 475 932 475 945 496 C 970 488 990 509 982 530 C 995 550 975 567 954 563 L 852 563 C 830 563 818 540 830 520 Z"/>
  </g>
</svg>
