<svg xmlns="http://www.w3.org/2000/svg" viewBox="0 0 1024 768">
  <defs>
    <linearGradient id="beachsky" x1="0" y1="0" x2="0" y2="1">
      <stop offset="0" stop-color="#B3E5FC"/>
      <stop offset="1" stop-color="#E1F5FE"/>
    </linearGradient>
  </defs>
  <rect width="1024" height="768" fill="url(#beachsky)"/>
  <circle cx="180" cy="130" r="65" fill="#FFE082"/>
  <circle cx="180" cy="130" r="48" fill="#FFD54F"/>
  <g fill="#FFFFFF" opacity="0.9">
    <ellipse cx="640" cy="110" rx="85" ry="30"/>
    <ellipse cx="720" cy="90" rx="55" ry="22"/>
  </g>
  <rect x="0" y="380" width="1024" height="180" fill="#4FC3F7"/>
  <path d="M 0 380 Q 128 360 256 380 Q 384 400 512 380 Q 640 360 768 380 Q 896 400 1024 380 L 1024 420 L 0 420 Z" fill="#81D4FA"/>
  <path d="M 0 560 Q 256 520 512 555 Q 768 590 1024 545 L 1024 768 L 0 768 Z" fill="#FFE0B2"/>
  <g fill="#FFCC80">
    <circle cx="300" cy="660" r="10"/>
    <circle cx="520" cy="700" r="8"/>
    <circle cx="760" cy="660" r="9"/>
  </g>
  <path d="M 840 320 L 840 210 Q 900 240 840 270 Z" fill="#FF8A65"/>
  <path d="M 836 320 L 844 320 L 844 200 L 836 200 Z" fill="#8D6E63"/>
  <path d="M 790 330 Q 840 310 890 330 L 874 360 L 806 360 Z" fill="#FFF3E0"/>
</svg>
