<svg xmlns="http://www.w3.org/2000/svg" viewBox="0 0 1024 768">
  <defs>
    <linearGradient id="dawn" x1="0" y1="0" x2="0" y2="1">
      <stop offset="0" stop-color="#FFD3E0"/>
      <stop offset="1" stop-color="#FFF3E0"/>
    </linearGradient>
  </defs>
  <rect width="1024" height="768" fill="url(#dawn)"/>
  <circle cx="160" cy="140" r="55" fill="#FFF59D"/>
  <g fill="#FFFFFF" opacity="0.85">
    <ellipse cx="700" cy="120" rx="90" ry="30"/>
    <ellipse cx="780" cy="100" rx="60" ry="24"/>
  </g>
  <path d="M 0 600 Q 300 540 600 590 Q 850 630 1024 580 L 1024 768 L 0 768 Z" fill="#A5D6A7"/>
  <g fill="#E6D7F5">
    <rect x="392" y="330" width="240" height="230"/>
    <rect x="352" y="290" width="70" height="270"/>
    <rect x="602" y="290" width="70" height="270"/>
    <path d="M 352 290 L 387 220 L 422 290 Z" fill="#CE93D8"/>
    <path d="M 602 290 L 637 220 L 672 290 Z" fill="#CE93D8"/>
    <rect x="472" y="250" width="80" height="310" fill="#DCC8EF"/>
    <path d="M 472 250 L 512 170 L 552 250 Z" fill="#BA68C8"/>
  </g>
  <path d="M 482 470 a 30 30 0 0 1 60 0 L 542 560 L 482 560 Z" fill="#8E6BB8"/>
  <rect x="380" y="360" width="26" height="40" rx="12" fill="#FFF9C4"/>
  <rect x="618" y="360" width="26" height="40" rx="12" fill="#FFF9C4"/>
  <rect x="500" y="300" width="26" height="40" rx="12" fill="#FFF9C4"/>
  <path d="M 512 170 L 512 130 L 566 142 L 512 154 Z" fill="#F48FB1"/>
</svg>
