<svg xmlns="http://www.w3.org/2000/svg" viewBox="0 0 1024 768">
  <defs>
    <linearGradient id="wintersky" x1="0" y1="0" x2="0" y2="1">
      <stop offset="0" stop-color="#C5CAE9"/>
      <stop offset="1" stop-color="#E8EAF6"/>
    </linearGradient>
  </defs>
  <rect width="1024" height="768" fill="url(#wintersky)"/>
  <path d="M 0 560 Q 256 500 512 545 Q 768 590 1024 530 L 1024 768 L 0 768 Z" fill="#FFFFFF"/>
  <path d="M 0 640 Q 300 600 620 650 Q 850 690 1024 640 L 1024 768 L 0 768 Z" fill="#F1F3FB"/>
  <g fill="#7FB069">
    <path d="M 160 560 L 220 440 L 280 560 Z"/>
    <path d="M 172 500 L 220 400 L 268 500 Z"/>
    <path d="M 184 448 L 220 370 L 256 448 Z"/>
  </g>
  <rect x="208" y="560" width="24" height="36" fill="#8D6E63"/>
  <g fill="#7FB069">
    <path d="M 790 590 L 850 470 L 910 590 Z"/>
    <path d="M 802 530 L 850 430 L 898 530 Z"/>
    <path d="M 814 478 L 850 400 L 886 478 Z"/>
  </g>
  <rect x="838" y="590" width="24" height="36" fill="#8D6E63"/>
  <g fill="#FFFFFF">
    <circle cx="140" cy="120" r="7"/>
    <circle cx="320" cy="200" r="6"/>
    <circle cx="520" cy="100" r="7"/>
    <circle cx="700" cy="180" r="6"/>
    <circle cx="900" cy="110" r="7"/>
    <circle cx="420" cy="300" r="5"/>
    <circle cx="620" cy="330" r="6"/>
    <circle cx="90 " cy="330" r="6"/>
    <circle cx="960" cy="320" r="5"/>
  </g>
  <circle cx="540" cy="200" r="46" fill="#FFF9C4" opacity="0.9"/>
</svg>
